<mxfile host="app.diagrams.net" modified="2023-10-25T06:42:11.591Z" agent="Mozilla/5.0 (Macintosh; Intel Mac OS X 10_15_7) AppleWebKit/537.36 (KHTML, like Gecko) Chrome/118.0.0.0 Safari/537.36" etag="SHtLd0O3xNUQ2OstClHw" version="22.0.7" type="github">
  <diagram name="Page-1" id="SnfJGStEzoVRbA4foViT">
    <mxGraphModel dx="2213" dy="-183" grid="1" gridSize="10" guides="1" tooltips="1" connect="1" arrows="1" fold="1" page="1" pageScale="1" pageWidth="850" pageHeight="1100" math="0" shadow="0">
      <root>
        <mxCell id="0" />
        <mxCell id="1" parent="0" />
        <mxCell id="F1q0alEKGs7h-l1YBk22-38" style="edgeStyle=orthogonalEdgeStyle;rounded=0;orthogonalLoop=1;jettySize=auto;html=1;exitX=0.875;exitY=0.5;exitDx=0;exitDy=0;exitPerimeter=0;" edge="1" parent="1" source="F1q0alEKGs7h-l1YBk22-25">
          <mxGeometry relative="1" as="geometry">
            <mxPoint x="-400" y="1359.5" as="targetPoint" />
          </mxGeometry>
        </mxCell>
        <mxCell id="F1q0alEKGs7h-l1YBk22-25" value="GEOFON" style="ellipse;shape=cloud;whiteSpace=wrap;html=1;" vertex="1" parent="1">
          <mxGeometry x="-640" y="1315" width="135" height="90" as="geometry" />
        </mxCell>
        <mxCell id="F1q0alEKGs7h-l1YBk22-83" style="edgeStyle=orthogonalEdgeStyle;rounded=0;orthogonalLoop=1;jettySize=auto;html=1;exitX=1;exitY=0.5;exitDx=0;exitDy=0;entryX=0;entryY=0.5;entryDx=0;entryDy=0;" edge="1" parent="1" source="F1q0alEKGs7h-l1YBk22-26" target="F1q0alEKGs7h-l1YBk22-82">
          <mxGeometry relative="1" as="geometry" />
        </mxCell>
        <mxCell id="F1q0alEKGs7h-l1YBk22-26" value="K&lt;br&gt;A&lt;br&gt;F&lt;br&gt;K&lt;br&gt;A" style="rounded=1;whiteSpace=wrap;html=1;" vertex="1" parent="1">
          <mxGeometry x="82.5" y="1315" width="70" height="560" as="geometry" />
        </mxCell>
        <mxCell id="F1q0alEKGs7h-l1YBk22-32" value="" style="group" vertex="1" connectable="0" parent="1">
          <mxGeometry x="-400" y="1315" width="190" height="120" as="geometry" />
        </mxCell>
        <mxCell id="F1q0alEKGs7h-l1YBk22-70" style="edgeStyle=orthogonalEdgeStyle;rounded=0;orthogonalLoop=1;jettySize=auto;html=1;exitX=1;exitY=0.5;exitDx=0;exitDy=0;" edge="1" parent="F1q0alEKGs7h-l1YBk22-32" source="F1q0alEKGs7h-l1YBk22-33">
          <mxGeometry relative="1" as="geometry">
            <mxPoint x="480" y="60" as="targetPoint" />
          </mxGeometry>
        </mxCell>
        <mxCell id="F1q0alEKGs7h-l1YBk22-33" value="" style="rounded=0;whiteSpace=wrap;html=1;" vertex="1" parent="F1q0alEKGs7h-l1YBk22-32">
          <mxGeometry width="190" height="120" as="geometry" />
        </mxCell>
        <mxCell id="F1q0alEKGs7h-l1YBk22-34" value="SLARCHIVE" style="rounded=0;whiteSpace=wrap;html=1;" vertex="1" parent="F1q0alEKGs7h-l1YBk22-32">
          <mxGeometry x="10" y="40" width="80" height="40" as="geometry" />
        </mxCell>
        <mxCell id="F1q0alEKGs7h-l1YBk22-35" value="FDSNWS" style="rounded=0;whiteSpace=wrap;html=1;" vertex="1" parent="F1q0alEKGs7h-l1YBk22-32">
          <mxGeometry x="100" y="40" width="80" height="40" as="geometry" />
        </mxCell>
        <mxCell id="F1q0alEKGs7h-l1YBk22-36" value="Producer Service (REST API)" style="text;html=1;align=center;verticalAlign=middle;resizable=0;points=[];autosize=1;strokeColor=none;fillColor=none;" vertex="1" parent="F1q0alEKGs7h-l1YBk22-32">
          <mxGeometry x="5" width="180" height="30" as="geometry" />
        </mxCell>
        <mxCell id="F1q0alEKGs7h-l1YBk22-40" value="Queue Service" style="rounded=0;whiteSpace=wrap;html=1;" vertex="1" parent="1">
          <mxGeometry x="-330" y="1495" width="120" height="60" as="geometry" />
        </mxCell>
        <mxCell id="F1q0alEKGs7h-l1YBk22-41" style="edgeStyle=orthogonalEdgeStyle;rounded=0;orthogonalLoop=1;jettySize=auto;html=1;startArrow=classic;startFill=1;" edge="1" parent="1" source="F1q0alEKGs7h-l1YBk22-40">
          <mxGeometry relative="1" as="geometry">
            <mxPoint x="80" y="1525" as="targetPoint" />
          </mxGeometry>
        </mxCell>
        <mxCell id="F1q0alEKGs7h-l1YBk22-73" value="" style="group" vertex="1" connectable="0" parent="1">
          <mxGeometry x="-340" y="1625" width="140" height="80" as="geometry" />
        </mxCell>
        <mxCell id="F1q0alEKGs7h-l1YBk22-66" value="P Arrival Service" style="rounded=0;whiteSpace=wrap;html=1;" vertex="1" parent="F1q0alEKGs7h-l1YBk22-73">
          <mxGeometry width="120" height="60" as="geometry" />
        </mxCell>
        <mxCell id="F1q0alEKGs7h-l1YBk22-71" value="P Arrival Service" style="rounded=0;whiteSpace=wrap;html=1;" vertex="1" parent="F1q0alEKGs7h-l1YBk22-73">
          <mxGeometry x="10" y="10" width="120" height="60" as="geometry" />
        </mxCell>
        <mxCell id="F1q0alEKGs7h-l1YBk22-72" value="P Arrival Service" style="rounded=0;whiteSpace=wrap;html=1;" vertex="1" parent="F1q0alEKGs7h-l1YBk22-73">
          <mxGeometry x="20" y="20" width="120" height="60" as="geometry" />
        </mxCell>
        <mxCell id="F1q0alEKGs7h-l1YBk22-79" value="" style="group" vertex="1" connectable="0" parent="1">
          <mxGeometry x="-340" y="1765" width="140" height="80" as="geometry" />
        </mxCell>
        <mxCell id="F1q0alEKGs7h-l1YBk22-68" value="" style="rounded=0;whiteSpace=wrap;html=1;" vertex="1" parent="F1q0alEKGs7h-l1YBk22-79">
          <mxGeometry width="120" height="60" as="geometry" />
        </mxCell>
        <mxCell id="F1q0alEKGs7h-l1YBk22-77" value="" style="rounded=0;whiteSpace=wrap;html=1;" vertex="1" parent="F1q0alEKGs7h-l1YBk22-79">
          <mxGeometry x="10" y="10" width="120" height="60" as="geometry" />
        </mxCell>
        <mxCell id="F1q0alEKGs7h-l1YBk22-80" style="edgeStyle=orthogonalEdgeStyle;rounded=0;orthogonalLoop=1;jettySize=auto;html=1;exitX=1;exitY=0.5;exitDx=0;exitDy=0;" edge="1" parent="F1q0alEKGs7h-l1YBk22-79" source="F1q0alEKGs7h-l1YBk22-78">
          <mxGeometry relative="1" as="geometry">
            <mxPoint x="420" y="50.29411764705901" as="targetPoint" />
          </mxGeometry>
        </mxCell>
        <mxCell id="F1q0alEKGs7h-l1YBk22-78" value="Parameter Prediction Service" style="rounded=0;whiteSpace=wrap;html=1;" vertex="1" parent="F1q0alEKGs7h-l1YBk22-79">
          <mxGeometry x="20" y="20" width="120" height="60" as="geometry" />
        </mxCell>
        <mxCell id="F1q0alEKGs7h-l1YBk22-81" style="edgeStyle=orthogonalEdgeStyle;rounded=0;orthogonalLoop=1;jettySize=auto;html=1;exitX=1;exitY=0.5;exitDx=0;exitDy=0;entryX=-0.014;entryY=0.642;entryDx=0;entryDy=0;entryPerimeter=0;" edge="1" parent="1" source="F1q0alEKGs7h-l1YBk22-72" target="F1q0alEKGs7h-l1YBk22-26">
          <mxGeometry relative="1" as="geometry" />
        </mxCell>
        <mxCell id="F1q0alEKGs7h-l1YBk22-85" style="edgeStyle=orthogonalEdgeStyle;rounded=0;orthogonalLoop=1;jettySize=auto;html=1;exitX=1;exitY=0.5;exitDx=0;exitDy=0;entryX=0;entryY=0.5;entryDx=0;entryDy=0;" edge="1" parent="1" source="F1q0alEKGs7h-l1YBk22-82" target="F1q0alEKGs7h-l1YBk22-84">
          <mxGeometry relative="1" as="geometry" />
        </mxCell>
        <mxCell id="F1q0alEKGs7h-l1YBk22-82" value="REST API &amp;amp; Websocket" style="rounded=0;whiteSpace=wrap;html=1;" vertex="1" parent="1">
          <mxGeometry x="280" y="1565" width="120" height="60" as="geometry" />
        </mxCell>
        <mxCell id="F1q0alEKGs7h-l1YBk22-84" value="Frontend" style="rounded=0;whiteSpace=wrap;html=1;" vertex="1" parent="1">
          <mxGeometry x="500" y="1565" width="120" height="60" as="geometry" />
        </mxCell>
        <mxCell id="F1q0alEKGs7h-l1YBk22-86" value="Produce: preprocessed topic" style="text;html=1;align=center;verticalAlign=middle;resizable=0;points=[];autosize=1;strokeColor=none;fillColor=none;" vertex="1" parent="1">
          <mxGeometry x="-160" y="1335" width="180" height="30" as="geometry" />
        </mxCell>
        <mxCell id="F1q0alEKGs7h-l1YBk22-88" value="Produce: parrival topic&lt;br&gt;Subscribe: preprocessed topic" style="text;html=1;align=center;verticalAlign=middle;resizable=0;points=[];autosize=1;strokeColor=none;fillColor=none;" vertex="1" parent="1">
          <mxGeometry x="-160" y="1485" width="180" height="40" as="geometry" />
        </mxCell>
        <mxCell id="F1q0alEKGs7h-l1YBk22-89" value="Produce: parameter_prediction topic&lt;br&gt;Subscribe: parrival topic" style="text;html=1;align=center;verticalAlign=middle;resizable=0;points=[];autosize=1;strokeColor=none;fillColor=none;" vertex="1" parent="1">
          <mxGeometry x="-170" y="1635" width="220" height="40" as="geometry" />
        </mxCell>
        <mxCell id="F1q0alEKGs7h-l1YBk22-90" value="Produce: parameter topic&lt;br&gt;Subscribe: parameter_prediction topic" style="text;html=1;align=center;verticalAlign=middle;resizable=0;points=[];autosize=1;strokeColor=none;fillColor=none;" vertex="1" parent="1">
          <mxGeometry x="-175" y="1775" width="230" height="40" as="geometry" />
        </mxCell>
        <mxCell id="F1q0alEKGs7h-l1YBk22-91" value="Redis" style="strokeWidth=2;html=1;shape=mxgraph.flowchart.database;whiteSpace=wrap;" vertex="1" parent="1">
          <mxGeometry x="87.5" y="1925" width="60" height="60" as="geometry" />
        </mxCell>
        <mxCell id="F1q0alEKGs7h-l1YBk22-92" style="edgeStyle=orthogonalEdgeStyle;rounded=0;orthogonalLoop=1;jettySize=auto;html=1;exitX=0.5;exitY=1;exitDx=0;exitDy=0;entryX=1;entryY=0.5;entryDx=0;entryDy=0;entryPerimeter=0;" edge="1" parent="1" source="F1q0alEKGs7h-l1YBk22-82" target="F1q0alEKGs7h-l1YBk22-91">
          <mxGeometry relative="1" as="geometry" />
        </mxCell>
        <mxCell id="F1q0alEKGs7h-l1YBk22-93" style="edgeStyle=orthogonalEdgeStyle;rounded=0;orthogonalLoop=1;jettySize=auto;html=1;exitX=1;exitY=0.5;exitDx=0;exitDy=0;entryX=0;entryY=0.5;entryDx=0;entryDy=0;entryPerimeter=0;" edge="1" parent="1" source="F1q0alEKGs7h-l1YBk22-72" target="F1q0alEKGs7h-l1YBk22-91">
          <mxGeometry relative="1" as="geometry">
            <mxPoint x="60" y="1935" as="targetPoint" />
            <Array as="points">
              <mxPoint x="-170" y="1675" />
              <mxPoint x="-170" y="1955" />
            </Array>
          </mxGeometry>
        </mxCell>
        <mxCell id="F1q0alEKGs7h-l1YBk22-94" value="enabled/disabled stations checking" style="text;html=1;align=center;verticalAlign=middle;resizable=0;points=[];autosize=1;strokeColor=none;fillColor=none;" vertex="1" parent="1">
          <mxGeometry x="-145" y="1923" width="210" height="30" as="geometry" />
        </mxCell>
        <mxCell id="F1q0alEKGs7h-l1YBk22-95" value="enable/disable stations" style="text;html=1;align=center;verticalAlign=middle;resizable=0;points=[];autosize=1;strokeColor=none;fillColor=none;" vertex="1" parent="1">
          <mxGeometry x="172.5" y="1923" width="150" height="30" as="geometry" />
        </mxCell>
        <mxCell id="F1q0alEKGs7h-l1YBk22-96" value="MongoDB" style="strokeWidth=2;html=1;shape=mxgraph.flowchart.database;whiteSpace=wrap;" vertex="1" parent="1">
          <mxGeometry x="-627.5" y="1753" width="110" height="110" as="geometry" />
        </mxCell>
        <mxCell id="F1q0alEKGs7h-l1YBk22-98" style="edgeStyle=orthogonalEdgeStyle;rounded=0;orthogonalLoop=1;jettySize=auto;html=1;exitX=0;exitY=0.5;exitDx=0;exitDy=0;entryX=0.986;entryY=0.559;entryDx=0;entryDy=0;entryPerimeter=0;" edge="1" parent="1" source="F1q0alEKGs7h-l1YBk22-78" target="F1q0alEKGs7h-l1YBk22-96">
          <mxGeometry relative="1" as="geometry" />
        </mxCell>
      </root>
    </mxGraphModel>
  </diagram>
</mxfile>
